<?xml version="1.0" standalone="no"?>
<!DOCTYPE svg PUBLIC "-//W3C//DTD SVG 20010904//EN"
 "http://www.w3.org/TR/2001/REC-SVG-20010904/DTD/svg10.dtd">
<svg version="1.0" xmlns="http://www.w3.org/2000/svg"
 width="841.000000pt" height="316.000000pt" viewBox="0 0 841.000000 316.000000"
 preserveAspectRatio="xMidYMid meet">

<g transform="translate(0.000000,316.000000) scale(0.100000,-0.100000)"
fill="#ffffff" stroke="none">
<path d="M0 1580 l0 -1580 1250 0 1250 0 0 520 0 520 -732 2 -733 3 -3 524
c-2 413 0 526 10 533 7 4 337 8 733 8 l720 -1 3 526 2 525 -1250 0 -1250 0 0
-1580z"/>
<path d="M2980 2145 l0 -1015 718 -2 717 -3 3 -92 3 -93 -718 -2 -718 -3 -3
-467 -2 -468 1235 0 1235 0 0 1035 0 1035 -720 0 -720 0 0 95 0 95 720 0 720
0 0 450 0 450 -1235 0 -1235 0 0 -1015z"/>
<path d="M5952 2145 l3 -1015 715 -3 715 -2 3 -92 3 -93 -718 -2 -718 -3 -3
-467 -2 -468 1230 0 1230 0 0 1035 0 1035 -715 0 -716 0 3 93 3 92 713 3 712
2 0 450 0 450 -1230 0 -1230 0 2 -1015z"/>
</g>
</svg>
