<svg id="visual" viewBox="0 0 1920 1080" width="1920" height="1080" xmlns="http://www.w3.org/2000/svg" xmlns:xlink="http://www.w3.org/1999/xlink" version="1.1"><rect x="0" y="0" width="1920" height="1080" fill="#001220"></rect><path d="M0 774L45.7 775C91.3 776 182.7 778 274.2 780.2C365.7 782.3 457.3 784.7 548.8 785C640.3 785.3 731.7 783.7 823 780.5C914.3 777.3 1005.7 772.7 1097 770.7C1188.3 768.7 1279.7 769.3 1371.2 764.7C1462.7 760 1554.3 750 1645.8 731.8C1737.3 713.7 1828.7 687.3 1874.3 674.2L1920 661L1920 1081L1874.3 1081C1828.7 1081 1737.3 1081 1645.8 1081C1554.3 1081 1462.7 1081 1371.2 1081C1279.7 1081 1188.3 1081 1097 1081C1005.7 1081 914.3 1081 823 1081C731.7 1081 640.3 1081 548.8 1081C457.3 1081 365.7 1081 274.2 1081C182.7 1081 91.3 1081 45.7 1081L0 1081Z" fill="#fa697f"></path><path d="M0 746L45.7 748.2C91.3 750.3 182.7 754.7 274.2 765.2C365.7 775.7 457.3 792.3 548.8 787.8C640.3 783.3 731.7 757.7 823 765.3C914.3 773 1005.7 814 1097 815.2C1188.3 816.3 1279.7 777.7 1371.2 773.2C1462.7 768.7 1554.3 798.3 1645.8 818.5C1737.3 838.7 1828.7 849.3 1874.3 854.7L1920 860L1920 1081L1874.3 1081C1828.7 1081 1737.3 1081 1645.8 1081C1554.3 1081 1462.7 1081 1371.2 1081C1279.7 1081 1188.3 1081 1097 1081C1005.7 1081 914.3 1081 823 1081C731.7 1081 640.3 1081 548.8 1081C457.3 1081 365.7 1081 274.2 1081C182.7 1081 91.3 1081 45.7 1081L0 1081Z" fill="#ee5a74"></path><path d="M0 830L45.7 844.2C91.3 858.3 182.7 886.7 274.2 888.7C365.7 890.7 457.3 866.3 548.8 858.5C640.3 850.7 731.7 859.3 823 866.8C914.3 874.3 1005.7 880.7 1097 889.5C1188.3 898.3 1279.7 909.7 1371.2 905.7C1462.7 901.7 1554.3 882.3 1645.8 872.2C1737.3 862 1828.7 861 1874.3 860.5L1920 860L1920 1081L1874.3 1081C1828.7 1081 1737.3 1081 1645.8 1081C1554.3 1081 1462.7 1081 1371.2 1081C1279.7 1081 1188.3 1081 1097 1081C1005.7 1081 914.3 1081 823 1081C731.7 1081 640.3 1081 548.8 1081C457.3 1081 365.7 1081 274.2 1081C182.7 1081 91.3 1081 45.7 1081L0 1081Z" fill="#e14a69"></path><path d="M0 951L45.7 942.5C91.3 934 182.7 917 274.2 903.8C365.7 890.7 457.3 881.3 548.8 890.5C640.3 899.7 731.7 927.3 823 944.7C914.3 962 1005.7 969 1097 957C1188.3 945 1279.7 914 1371.2 910.8C1462.7 907.7 1554.3 932.3 1645.8 934C1737.3 935.7 1828.7 914.3 1874.3 903.7L1920 893L1920 1081L1874.3 1081C1828.7 1081 1737.3 1081 1645.8 1081C1554.3 1081 1462.7 1081 1371.2 1081C1279.7 1081 1188.3 1081 1097 1081C1005.7 1081 914.3 1081 823 1081C731.7 1081 640.3 1081 548.8 1081C457.3 1081 365.7 1081 274.2 1081C182.7 1081 91.3 1081 45.7 1081L0 1081Z" fill="#d4395f"></path><path d="M0 995L45.7 992.2C91.3 989.3 182.7 983.7 274.2 984.2C365.7 984.7 457.3 991.3 548.8 996.3C640.3 1001.3 731.7 1004.7 823 1010.3C914.3 1016 1005.7 1024 1097 1016.7C1188.3 1009.3 1279.7 986.7 1371.2 986.7C1462.7 986.7 1554.3 1009.3 1645.8 1010C1737.3 1010.7 1828.7 989.3 1874.3 978.7L1920 968L1920 1081L1874.3 1081C1828.7 1081 1737.3 1081 1645.8 1081C1554.3 1081 1462.7 1081 1371.2 1081C1279.7 1081 1188.3 1081 1097 1081C1005.7 1081 914.3 1081 823 1081C731.7 1081 640.3 1081 548.8 1081C457.3 1081 365.7 1081 274.2 1081C182.7 1081 91.3 1081 45.7 1081L0 1081Z" fill="#c72455"></path></svg>