<svg viewBox="0 0 1920 500" width="1920" height="500" xmlns="http://www.w3.org/2000/svg" xmlns:xlink="http://www.w3.org/1999/xlink" version="1.1"><rect x="0" y="0" width="1920" height="500" fill="#00101c"></rect><path d="M0 305L45.7 316.2C91.3 327.3 182.7 349.7 274.2 347.7C365.7 345.7 457.3 319.3 548.8 308C640.3 296.7 731.7 300.3 823 303.5C914.3 306.7 1005.7 309.3 1097 308.8C1188.3 308.3 1279.7 304.7 1371.2 307C1462.7 309.3 1554.3 317.7 1645.8 327.2C1737.3 336.7 1828.7 347.3 1874.3 352.7L1920 358L1920 501L1874.3 501C1828.7 501 1737.3 501 1645.8 501C1554.3 501 1462.7 501 1371.2 501C1279.7 501 1188.3 501 1097 501C1005.7 501 914.3 501 823 501C731.7 501 640.3 501 548.8 501C457.3 501 365.7 501 274.2 501C182.7 501 91.3 501 45.7 501L0 501Z" fill="#c2214d"></path><path d="M0 335L45.7 335.8C91.3 336.7 182.7 338.3 274.2 346.2C365.7 354 457.3 368 548.8 367.7C640.3 367.3 731.7 352.7 823 347C914.3 341.3 1005.7 344.7 1097 350.8C1188.3 357 1279.7 366 1371.2 366.2C1462.7 366.3 1554.3 357.7 1645.8 360C1737.3 362.3 1828.7 375.7 1874.3 382.3L1920 389L1920 501L1874.3 501C1828.7 501 1737.3 501 1645.8 501C1554.3 501 1462.7 501 1371.2 501C1279.7 501 1188.3 501 1097 501C1005.7 501 914.3 501 823 501C731.7 501 640.3 501 548.8 501C457.3 501 365.7 501 274.2 501C182.7 501 91.3 501 45.7 501L0 501Z" fill="#cb3060"></path><path d="M0 386L45.7 385C91.3 384 182.7 382 274.2 387.5C365.7 393 457.3 406 548.8 411.2C640.3 416.3 731.7 413.7 823 414.2C914.3 414.7 1005.7 418.3 1097 415.2C1188.3 412 1279.7 402 1371.2 392.5C1462.7 383 1554.3 374 1645.8 373C1737.3 372 1828.7 379 1874.3 382.5L1920 386L1920 501L1874.3 501C1828.7 501 1737.3 501 1645.8 501C1554.3 501 1462.7 501 1371.2 501C1279.7 501 1188.3 501 1097 501C1005.7 501 914.3 501 823 501C731.7 501 640.3 501 548.8 501C457.3 501 365.7 501 274.2 501C182.7 501 91.3 501 45.7 501L0 501Z" fill="#d33f74"></path><path d="M0 404L45.7 411.5C91.3 419 182.7 434 274.2 440.3C365.7 446.7 457.3 444.3 548.8 436.5C640.3 428.7 731.7 415.3 823 412C914.3 408.7 1005.7 415.3 1097 418.2C1188.3 421 1279.7 420 1371.2 420.2C1462.7 420.3 1554.3 421.7 1645.8 426.3C1737.3 431 1828.7 439 1874.3 443L1920 447L1920 501L1874.3 501C1828.7 501 1737.3 501 1645.8 501C1554.3 501 1462.7 501 1371.2 501C1279.7 501 1188.3 501 1097 501C1005.7 501 914.3 501 823 501C731.7 501 640.3 501 548.8 501C457.3 501 365.7 501 274.2 501C182.7 501 91.3 501 45.7 501L0 501Z" fill="#d94d87"></path><path d="M0 470L45.7 470.8C91.3 471.7 182.7 473.3 274.2 469.7C365.7 466 457.3 457 548.8 451.8C640.3 446.7 731.7 445.3 823 450C914.3 454.7 1005.7 465.3 1097 468.2C1188.3 471 1279.7 466 1371.2 460.2C1462.7 454.3 1554.3 447.7 1645.8 443.7C1737.3 439.7 1828.7 438.3 1874.3 437.7L1920 437L1920 501L1874.3 501C1828.7 501 1737.3 501 1645.8 501C1554.3 501 1462.7 501 1371.2 501C1279.7 501 1188.3 501 1097 501C1005.7 501 914.3 501 823 501C731.7 501 640.3 501 548.8 501C457.3 501 365.7 501 274.2 501C182.7 501 91.3 501 45.7 501L0 501Z" fill="#de5b9a"></path></svg>