<?xml version="1.0" standalone="no"?>
<!DOCTYPE svg PUBLIC "-//W3C//DTD SVG 20010904//EN"
 "http://www.w3.org/TR/2001/REC-SVG-20010904/DTD/svg10.dtd">
<svg version="1.0" xmlns="http://www.w3.org/2000/svg"
 width="1351.000000pt" height="316.000000pt" viewBox="0 0 1351.000000 316.000000"
 preserveAspectRatio="xMidYMid meet">

<g transform="translate(0.000000,316.000000) scale(0.100000,-0.100000)"
fill="#ffffff" stroke="none">
<path d="M0 1580 l0 -1580 410 0 410 0 2 482 3 483 503 3 502 2 0 -485 0 -485
545 0 545 0 0 1580 0 1580 -542 -2 -543 -3 -3 -542 -2 -543 -23 -5 c-12 -3
-240 -4 -507 -3 l-485 3 -3 548 -2 547 -405 0 -405 0 0 -1580z"/>
<path d="M3410 2615 l0 -545 483 -2 482 -3 3 -1032 2 -1033 545 0 545 0 2
1033 3 1032 483 3 482 2 0 545 0 545 -1515 0 -1515 0 0 -545z"/>
<path d="M6930 1580 l0 -1580 535 0 535 0 0 745 c0 428 4 745 9 745 5 0 48
-60 95 -132 47 -73 157 -242 243 -375 87 -134 217 -333 288 -443 72 -110 135
-200 140 -200 6 0 44 53 85 118 41 64 146 227 233 362 88 135 215 331 283 435
151 232 153 235 164 235 6 0 10 -279 10 -745 l0 -745 540 0 540 0 0 1580 0
1580 -568 0 -568 0 -71 -117 c-67 -112 -180 -298 -378 -623 -49 -80 -124 -203
-168 -275 -43 -71 -82 -133 -86 -138 -10 -10 -29 13 -88 113 -58 97 -311 514
-526 865 -44 72 -85 140 -91 152 l-11 23 -572 0 -573 0 0 -1580z"/>
<path d="M11190 1580 l0 -1580 1160 0 1160 0 0 475 0 475 -614 0 c-551 0 -614
2 -620 16 -3 9 -6 506 -6 1105 l0 1089 -540 0 -540 0 0 -1580z"/>
</g>
</svg>
