<?xml version="1.0" standalone="no"?>
<!DOCTYPE svg PUBLIC "-//W3C//DTD SVG 20010904//EN"
 "http://www.w3.org/TR/2001/REC-SVG-20010904/DTD/svg10.dtd">
<svg version="1.0" xmlns="http://www.w3.org/2000/svg"
 width="1351.000000pt" height="959.000000pt" viewBox="0 0 1351.000000 959.000000"
 preserveAspectRatio="xMidYMid meet">

<g transform="translate(0.000000,959.000000) scale(0.100000,-0.100000)"
fill="#000000" stroke="none">
<path d="M9905 9573 c-892 -75 -1608 -442 -2058 -1055 -401 -546 -548 -1253
-421 -2028 122 -747 516 -1327 1219 -1795 302 -201 642 -375 1215 -620 906
-389 1185 -532 1394 -715 219 -190 317 -404 317 -691 1 -188 -37 -315 -136
-465 -160 -240 -447 -402 -830 -469 -126 -23 -422 -31 -570 -16 -669 67 -1156
384 -1589 1034 -56 86 -82 117 -93 112 -32 -12 -1542 -890 -1543 -897 -1 -15
138 -252 215 -368 450 -672 1118 -1159 1926 -1404 397 -120 771 -175 1249
-183 401 -7 660 12 980 73 1232 233 2053 966 2260 2017 79 404 73 893 -16
1294 -110 498 -327 882 -701 1244 -211 203 -409 351 -722 539 -309 186 -620
336 -1291 625 -751 323 -967 438 -1158 620 -196 185 -273 367 -275 645 0 149
24 263 79 373 45 90 64 118 139 196 120 126 275 208 480 253 92 20 398 17 509
-5 281 -56 506 -194 701 -427 63 -76 182 -249 225 -328 13 -23 29 -41 35 -38
9 3 1476 944 1483 951 5 5 -83 147 -169 275 -297 439 -644 750 -1074 961 -327
160 -693 254 -1129 289 -117 9 -554 11 -651 3z"/>
<path d="M3837 6058 c-2 -3212 -3 -3419 -20 -3508 -54 -292 -138 -475 -277
-604 -152 -140 -354 -209 -647 -222 -278 -13 -487 39 -681 167 -198 130 -366
334 -571 693 l-73 127 -31 -20 c-18 -11 -367 -222 -777 -470 -410 -249 -746
-456 -748 -461 -9 -25 194 -373 312 -534 462 -633 1102 -1024 1899 -1160 239
-41 373 -51 687 -50 307 0 456 12 700 55 636 111 1171 399 1522 819 365 436
567 992 618 1705 6 89 10 1363 10 3508 l0 3367 -960 0 -960 0 -3 -3412z"/>
</g>
</svg>
