<svg viewBox="0 0 600 600" width="600" height="600" xmlns="http://www.w3.org/2000/svg" xmlns:xlink="http://www.w3.org/1999/xlink" version="1.1"><g stroke-width="1" stroke-linejoin="bevel"><path d="M357.3 272.7L364.3 346.3L425 312.3Z" fill="#cc491f" stroke="#cc491f"></path><path d="M425 312.3L419 231.7L357.3 272.7Z" fill="#d85323" stroke="#d85323"></path><path d="M495.3 317.3L472.7 288.7L425 312.3Z" fill="#b33718" stroke="#b33718"></path><path d="M425 312.3L472.7 288.7L419 231.7Z" fill="#d85323" stroke="#d85323"></path><path d="M514.3 246.7L427 209L419 231.7Z" fill="#e55c26" stroke="#e55c26"></path><path d="M355.3 168.3L294.7 215L357.3 272.7Z" fill="#bf401c" stroke="#bf401c"></path><path d="M364.3 346.3L476.7 361.3L425 312.3Z" fill="#cc491f" stroke="#cc491f"></path><path d="M364.3 346.3L377 416L476.7 361.3Z" fill="#f16529" stroke="#f16529"></path><path d="M476.7 361.3L495.3 317.3L425 312.3Z" fill="#f16529" stroke="#f16529"></path><path d="M472.7 288.7L514.3 246.7L419 231.7Z" fill="#b93c1a" stroke="#b93c1a"></path><path d="M229.7 309.3L312.3 397L364.3 346.3Z" fill="#e55c26" stroke="#e55c26"></path><path d="M364.3 346.3L312.3 397L377 416Z" fill="#eb6027" stroke="#eb6027"></path><path d="M355.3 168.3L357.3 272.7L419 231.7Z" fill="#eb6027" stroke="#eb6027"></path><path d="M357.3 272.7L229.7 309.3L364.3 346.3Z" fill="#b33718" stroke="#b33718"></path><path d="M427 209L355.3 168.3L419 231.7Z" fill="#b93c1a" stroke="#b93c1a"></path><path d="M495.3 317.3L514.3 246.7L472.7 288.7Z" fill="#e55c26" stroke="#e55c26"></path><path d="M427 209L389 141.3L355.3 168.3Z" fill="#eb6027" stroke="#eb6027"></path><path d="M377 416L500.7 393L476.7 361.3Z" fill="#f16529" stroke="#f16529"></path><path d="M476.7 361.3L500.7 393L495.3 317.3Z" fill="#c6451d" stroke="#c6451d"></path><path d="M495.3 317.3L600 263.7L514.3 246.7Z" fill="#de5724" stroke="#de5724"></path><path d="M355.3 168.3L346.3 164L294.7 215Z" fill="#c6451d" stroke="#c6451d"></path><path d="M294.7 215L229.7 309.3L357.3 272.7Z" fill="#b33718" stroke="#b33718"></path><path d="M223 193L250.7 227.7L294.7 215Z" fill="#cc491f" stroke="#cc491f"></path><path d="M294.7 215L250.7 227.7L229.7 309.3Z" fill="#bf401c" stroke="#bf401c"></path><path d="M250.7 227.7L229 248.7L229.7 309.3Z" fill="#f16529" stroke="#f16529"></path><path d="M503.7 164.3L389 141.3L427 209Z" fill="#c6451d" stroke="#c6451d"></path><path d="M355.3 168.3L389 141.3L346.3 164Z" fill="#c6451d" stroke="#c6451d"></path><path d="M229.7 309.3L230.7 382L312.3 397Z" fill="#d85323" stroke="#d85323"></path><path d="M359.3 500.7L401 483.7L377 416Z" fill="#f16529" stroke="#f16529"></path><path d="M514.3 246.7L499.7 184L427 209Z" fill="#bf401c" stroke="#bf401c"></path><path d="M359.3 500.7L377 416L312.3 397Z" fill="#bf401c" stroke="#bf401c"></path><path d="M459.7 495.7L511.3 437.7L500.7 393Z" fill="#eb6027" stroke="#eb6027"></path><path d="M459.7 495.7L500.7 393L377 416Z" fill="#d24e21" stroke="#d24e21"></path><path d="M500.7 393L600 362.3L495.3 317.3Z" fill="#eb6027" stroke="#eb6027"></path><path d="M534.3 184L503.7 164.3L499.7 184Z" fill="#de5724" stroke="#de5724"></path><path d="M499.7 184L503.7 164.3L427 209Z" fill="#de5724" stroke="#de5724"></path><path d="M266.7 499.7L359.3 500.7L312.3 397Z" fill="#b33718" stroke="#b33718"></path><path d="M514.3 246.7L534.3 184L499.7 184Z" fill="#b93c1a" stroke="#b93c1a"></path><path d="M600 263.7L534.3 184L514.3 246.7Z" fill="#bf401c" stroke="#bf401c"></path><path d="M264.7 134.3L294.7 215L346.3 164Z" fill="#f16529" stroke="#f16529"></path><path d="M264.7 134.3L223 193L294.7 215Z" fill="#de5724" stroke="#de5724"></path><path d="M250.7 227.7L223 193L229 248.7Z" fill="#d24e21" stroke="#d24e21"></path><path d="M168 370.3L230.7 382L229.7 309.3Z" fill="#c6451d" stroke="#c6451d"></path><path d="M168 370.3L204 423L230.7 382Z" fill="#de5724" stroke="#de5724"></path><path d="M401 483.7L459.7 495.7L377 416Z" fill="#b33718" stroke="#b33718"></path><path d="M463.7 516.3L459.7 495.7L401 483.7Z" fill="#cc491f" stroke="#cc491f"></path><path d="M276.7 79.7L264.7 134.3L346.3 164Z" fill="#b93c1a" stroke="#b93c1a"></path><path d="M168 370.3L229.7 309.3L122.3 258.7Z" fill="#c6451d" stroke="#c6451d"></path><path d="M230.7 382L204 423L312.3 397Z" fill="#eb6027" stroke="#eb6027"></path><path d="M600 479.7L565.3 419L511.3 437.7Z" fill="#e55c26" stroke="#e55c26"></path><path d="M511.3 437.7L565.3 419L500.7 393Z" fill="#e55c26" stroke="#e55c26"></path><path d="M600 362.3L600 263.7L495.3 317.3Z" fill="#eb6027" stroke="#eb6027"></path><path d="M600 138.3L498.3 117.3L534.3 184Z" fill="#de5724" stroke="#de5724"></path><path d="M534.3 184L498.3 117.3L503.7 164.3Z" fill="#c6451d" stroke="#c6451d"></path><path d="M503.7 164.3L498.3 117.3L389 141.3Z" fill="#de5724" stroke="#de5724"></path><path d="M389 141.3L372 82.7L346.3 164Z" fill="#cc491f" stroke="#cc491f"></path><path d="M122.3 258.7L229.7 309.3L229 248.7Z" fill="#cc491f" stroke="#cc491f"></path><path d="M430 556.3L463.7 516.3L401 483.7Z" fill="#d85323" stroke="#d85323"></path><path d="M459.7 495.7L463.7 516.3L511.3 437.7Z" fill="#e55c26" stroke="#e55c26"></path><path d="M204 423L266.7 499.7L312.3 397Z" fill="#bf401c" stroke="#bf401c"></path><path d="M359.3 500.7L365.3 559.3L401 483.7Z" fill="#eb6027" stroke="#eb6027"></path><path d="M600 367L600 362.3L500.7 393Z" fill="#de5724" stroke="#de5724"></path><path d="M481.7 73.7L372 82.7L389 141.3Z" fill="#d85323" stroke="#d85323"></path><path d="M565.3 419L600 367L500.7 393Z" fill="#d85323" stroke="#d85323"></path><path d="M264.7 134.3L170 164.3L223 193Z" fill="#e55c26" stroke="#e55c26"></path><path d="M372 82.7L276.7 79.7L346.3 164Z" fill="#c6451d" stroke="#c6451d"></path><path d="M266.7 499.7L365.3 559.3L359.3 500.7Z" fill="#eb6027" stroke="#eb6027"></path><path d="M365.3 559.3L430 556.3L401 483.7Z" fill="#f16529" stroke="#f16529"></path><path d="M600 517.3L600 479.7L511.3 437.7Z" fill="#f16529" stroke="#f16529"></path><path d="M554.3 67.7L481.7 73.7L498.3 117.3Z" fill="#b33718" stroke="#b33718"></path><path d="M498.3 117.3L481.7 73.7L389 141.3Z" fill="#bf401c" stroke="#bf401c"></path><path d="M372 82.7L367.3 30.7L276.7 79.7Z" fill="#eb6027" stroke="#eb6027"></path><path d="M600 263.7L600 175L534.3 184Z" fill="#e55c26" stroke="#e55c26"></path><path d="M177 102.7L170 164.3L264.7 134.3Z" fill="#e55c26" stroke="#e55c26"></path><path d="M134.3 210L122.3 258.7L229 248.7Z" fill="#c6451d" stroke="#c6451d"></path><path d="M168 370.3L155.3 439L204 423Z" fill="#eb6027" stroke="#eb6027"></path><path d="M204 423L182 491.7L266.7 499.7Z" fill="#cc491f" stroke="#cc491f"></path><path d="M266.7 499.7L293.3 600L365.3 559.3Z" fill="#b33718" stroke="#b33718"></path><path d="M111.3 362.3L155.3 439L168 370.3Z" fill="#bf401c" stroke="#bf401c"></path><path d="M134.3 210L229 248.7L223 193Z" fill="#e55c26" stroke="#e55c26"></path><path d="M170 164.3L134.3 210L223 193Z" fill="#bf401c" stroke="#bf401c"></path><path d="M155.3 439L182 491.7L204 423Z" fill="#f16529" stroke="#f16529"></path><path d="M600 175L600 138.3L534.3 184Z" fill="#e55c26" stroke="#e55c26"></path><path d="M122.3 258.7L111.3 362.3L168 370.3Z" fill="#b93c1a" stroke="#b93c1a"></path><path d="M155.3 439L107.3 473.7L182 491.7Z" fill="#d85323" stroke="#d85323"></path><path d="M423 0L367.3 30.7L372 82.7Z" fill="#d85323" stroke="#d85323"></path><path d="M511.3 567.3L511.3 437.7L463.7 516.3Z" fill="#d85323" stroke="#d85323"></path><path d="M565.3 419L600 479.7L600 367Z" fill="#f16529" stroke="#f16529"></path><path d="M276.7 79.7L177 102.7L264.7 134.3Z" fill="#d24e21" stroke="#d24e21"></path><path d="M170 164.3L137.3 119.3L134.3 210Z" fill="#d24e21" stroke="#d24e21"></path><path d="M172.3 35.7L177 102.7L276.7 79.7Z" fill="#e55c26" stroke="#e55c26"></path><path d="M430 556.3L511.3 567.3L463.7 516.3Z" fill="#c6451d" stroke="#c6451d"></path><path d="M493.7 600L511.3 567.3L430 556.3Z" fill="#c6451d" stroke="#c6451d"></path><path d="M54.7 303.3L96.7 373L111.3 362.3Z" fill="#b93c1a" stroke="#b93c1a"></path><path d="M111.3 362.3L96.7 373L155.3 439Z" fill="#bf401c" stroke="#bf401c"></path><path d="M600 138.3L554.3 67.7L498.3 117.3Z" fill="#cc491f" stroke="#cc491f"></path><path d="M481.7 73.7L423 0L372 82.7Z" fill="#cc491f" stroke="#cc491f"></path><path d="M293.3 600L425 600L365.3 559.3Z" fill="#d85323" stroke="#d85323"></path><path d="M365.3 559.3L425 600L430 556.3Z" fill="#b93c1a" stroke="#b93c1a"></path><path d="M134.3 210L95.7 231.7L122.3 258.7Z" fill="#e55c26" stroke="#e55c26"></path><path d="M122.3 258.7L54.7 303.3L111.3 362.3Z" fill="#b93c1a" stroke="#b93c1a"></path><path d="M62.7 170.3L95.7 231.7L134.3 210Z" fill="#bf401c" stroke="#bf401c"></path><path d="M201 549.3L266.7 499.7L182 491.7Z" fill="#d24e21" stroke="#d24e21"></path><path d="M201 549.3L238.7 571.3L266.7 499.7Z" fill="#cc491f" stroke="#cc491f"></path><path d="M511.3 567.3L600 517.3L511.3 437.7Z" fill="#f16529" stroke="#f16529"></path><path d="M131.3 560.3L201 549.3L182 491.7Z" fill="#c6451d" stroke="#c6451d"></path><path d="M238.7 571.3L293.3 600L266.7 499.7Z" fill="#d24e21" stroke="#d24e21"></path><path d="M177 102.7L137.3 119.3L170 164.3Z" fill="#b33718" stroke="#b33718"></path><path d="M443.7 0L423 0L481.7 73.7Z" fill="#d85323" stroke="#d85323"></path><path d="M367.3 30.7L305.3 0L276.7 79.7Z" fill="#f16529" stroke="#f16529"></path><path d="M172 600L274.7 600L238.7 571.3Z" fill="#d85323" stroke="#d85323"></path><path d="M238.7 571.3L274.7 600L293.3 600Z" fill="#e55c26" stroke="#e55c26"></path><path d="M425 600L493.7 600L430 556.3Z" fill="#bf401c" stroke="#bf401c"></path><path d="M511.3 567.3L600 600L600 517.3Z" fill="#bf401c" stroke="#bf401c"></path><path d="M531.3 0L443.7 0L481.7 73.7Z" fill="#b93c1a" stroke="#b93c1a"></path><path d="M423 0L305.3 0L367.3 30.7Z" fill="#b93c1a" stroke="#b93c1a"></path><path d="M177 102.7L172.3 35.7L137.3 119.3Z" fill="#cc491f" stroke="#cc491f"></path><path d="M96.7 373L107.3 473.7L155.3 439Z" fill="#eb6027" stroke="#eb6027"></path><path d="M493.7 600L518.3 600L511.3 567.3Z" fill="#eb6027" stroke="#eb6027"></path><path d="M33.7 215L54.7 303.3L95.7 231.7Z" fill="#c6451d" stroke="#c6451d"></path><path d="M95.7 231.7L54.7 303.3L122.3 258.7Z" fill="#cc491f" stroke="#cc491f"></path><path d="M96.7 373L62.7 467.7L107.3 473.7Z" fill="#e55c26" stroke="#e55c26"></path><path d="M305.3 0L251.7 0L276.7 79.7Z" fill="#de5724" stroke="#de5724"></path><path d="M600 34.7L531.3 0L554.3 67.7Z" fill="#cc491f" stroke="#cc491f"></path><path d="M554.3 67.7L531.3 0L481.7 73.7Z" fill="#bf401c" stroke="#bf401c"></path><path d="M251.7 0L172.3 35.7L276.7 79.7Z" fill="#d85323" stroke="#d85323"></path><path d="M137.3 119.3L62.7 170.3L134.3 210Z" fill="#cc491f" stroke="#cc491f"></path><path d="M67.7 44.7L62.7 170.3L137.3 119.3Z" fill="#d24e21" stroke="#d24e21"></path><path d="M600 138.3L600 34.7L554.3 67.7Z" fill="#e55c26" stroke="#e55c26"></path><path d="M107.3 473.7L131.3 560.3L182 491.7Z" fill="#d24e21" stroke="#d24e21"></path><path d="M201 549.3L172 600L238.7 571.3Z" fill="#eb6027" stroke="#eb6027"></path><path d="M87.7 545.3L131.3 560.3L107.3 473.7Z" fill="#d24e21" stroke="#d24e21"></path><path d="M0 428L62.7 467.7L96.7 373Z" fill="#d85323" stroke="#d85323"></path><path d="M131.3 560.3L172 600L201 549.3Z" fill="#d85323" stroke="#d85323"></path><path d="M62.7 170.3L33.7 215L95.7 231.7Z" fill="#b33718" stroke="#b33718"></path><path d="M54.7 303.3L0 428L96.7 373Z" fill="#c6451d" stroke="#c6451d"></path><path d="M518.3 600L600 600L511.3 567.3Z" fill="#b33718" stroke="#b33718"></path><path d="M600 34.7L600 0L531.3 0Z" fill="#bf401c" stroke="#bf401c"></path><path d="M61.7 600L144.3 600L131.3 560.3Z" fill="#de5724" stroke="#de5724"></path><path d="M131.3 560.3L144.3 600L172 600Z" fill="#b93c1a" stroke="#b93c1a"></path><path d="M62.7 467.7L87.7 545.3L107.3 473.7Z" fill="#e55c26" stroke="#e55c26"></path><path d="M251.7 0L160 0L172.3 35.7Z" fill="#e55c26" stroke="#e55c26"></path><path d="M172.3 35.7L67.7 44.7L137.3 119.3Z" fill="#eb6027" stroke="#eb6027"></path><path d="M0 176L0 229.7L33.7 215Z" fill="#de5724" stroke="#de5724"></path><path d="M0 229.7L0 297.3L54.7 303.3Z" fill="#d85323" stroke="#d85323"></path><path d="M62.7 467.7L0 554.3L87.7 545.3Z" fill="#d24e21" stroke="#d24e21"></path><path d="M0 176L33.7 215L62.7 170.3Z" fill="#d24e21" stroke="#d24e21"></path><path d="M33.7 215L0 229.7L54.7 303.3Z" fill="#d24e21" stroke="#d24e21"></path><path d="M160 0L133.3 0L172.3 35.7Z" fill="#c6451d" stroke="#c6451d"></path><path d="M0 297.3L0 428L54.7 303.3Z" fill="#c6451d" stroke="#c6451d"></path><path d="M0 144.3L0 176L62.7 170.3Z" fill="#de5724" stroke="#de5724"></path><path d="M133.3 0L67.7 44.7L172.3 35.7Z" fill="#b33718" stroke="#b33718"></path><path d="M0 428L0 466.7L62.7 467.7Z" fill="#f16529" stroke="#f16529"></path><path d="M87.7 545.3L61.7 600L131.3 560.3Z" fill="#de5724" stroke="#de5724"></path><path d="M67.7 44.7L0 144.3L62.7 170.3Z" fill="#e55c26" stroke="#e55c26"></path><path d="M0 554.3L61.7 600L87.7 545.3Z" fill="#d85323" stroke="#d85323"></path><path d="M133.3 0L48.7 0L67.7 44.7Z" fill="#d85323" stroke="#d85323"></path><path d="M67.7 44.7L0 28.7L0 144.3Z" fill="#de5724" stroke="#de5724"></path><path d="M0 466.7L0 554.3L62.7 467.7Z" fill="#de5724" stroke="#de5724"></path><path d="M48.7 0L0 28.7L67.7 44.7Z" fill="#d24e21" stroke="#d24e21"></path><path d="M0 554.3L0 600L61.7 600Z" fill="#e55c26" stroke="#e55c26"></path><path d="M48.7 0L0 0L0 28.7Z" fill="#d24e21" stroke="#d24e21"></path></g></svg>
