<svg id="visual" viewBox="0 0 600 600" width="600" height="600" xmlns="http://www.w3.org/2000/svg" xmlns:xlink="http://www.w3.org/1999/xlink" version="1.1"><rect x="0" y="0" width="600" height="600" fill="#001220"></rect><defs><linearGradient id="grad1_0" x1="0%" y1="0%" x2="100%" y2="100%"><stop offset="30%" stop-color="#001220" stop-opacity="1"></stop><stop offset="70%" stop-color="#001220" stop-opacity="1"></stop></linearGradient></defs><defs><linearGradient id="grad2_0" x1="0%" y1="0%" x2="100%" y2="100%"><stop offset="30%" stop-color="#001220" stop-opacity="1"></stop><stop offset="70%" stop-color="#001220" stop-opacity="1"></stop></linearGradient></defs><g transform="translate(600, 0)"><path d="M0 381.8C-40.3 348.1 -80.5 314.4 -122.1 294.7C-163.6 275 -206.4 269.4 -248.2 248.2C-290 227 -330.7 190.1 -352.8 146.1C-374.9 102.2 -378.4 51.1 -381.8 0L0 0Z" fill="#FBAE3C"></path></g><g transform="translate(0, 600)"><path d="M0 -381.8C51.6 -378.4 103.3 -375 146.1 -352.8C189 -330.6 223.1 -289.6 250.3 -250.3C277.6 -211 298 -173.5 318.7 -132C339.5 -90.6 360.7 -45.3 381.8 0L0 0Z" fill="#FBAE3C"></path></g></svg>