<svg id="visual" viewBox="0 0 900 600" width="900" height="600" xmlns="http://www.w3.org/2000/svg" xmlns:xlink="http://www.w3.org/1999/xlink" version="1.1"><g stroke-width="1" stroke-linejoin="bevel"><path d="M466 330L432 366L527 365Z" fill="#d24e21" stroke="#d24e21"></path><path d="M536 499L565 379L527 365Z" fill="#d85323" stroke="#d85323"></path><path d="M527 365L560 334L466 330Z" fill="#eb6027" stroke="#eb6027"></path><path d="M565 379L560 334L527 365Z" fill="#d85323" stroke="#d85323"></path><path d="M466 330L370 302L432 366Z" fill="#b93c1a" stroke="#b93c1a"></path><path d="M368 220L370 302L466 330Z" fill="#de5724" stroke="#de5724"></path><path d="M425 520L536 499L432 366Z" fill="#bf401c" stroke="#bf401c"></path><path d="M432 366L536 499L527 365Z" fill="#c6451d" stroke="#c6451d"></path><path d="M536 499L573 498L565 379Z" fill="#e55c26" stroke="#e55c26"></path><path d="M283 480L425 520L432 366Z" fill="#e55c26" stroke="#e55c26"></path><path d="M536 499L482 600L573 498Z" fill="#d24e21" stroke="#d24e21"></path><path d="M485 166L368 220L466 330Z" fill="#b33718" stroke="#b33718"></path><path d="M332 236L290 319L370 302Z" fill="#cc491f" stroke="#cc491f"></path><path d="M370 302L269 404L432 366Z" fill="#c6451d" stroke="#c6451d"></path><path d="M368 220L332 236L370 302Z" fill="#e55c26" stroke="#e55c26"></path><path d="M728 335L598 210L560 334Z" fill="#f16529" stroke="#f16529"></path><path d="M560 334L598 210L466 330Z" fill="#b93c1a" stroke="#b93c1a"></path><path d="M728 335L560 334L565 379Z" fill="#de5724" stroke="#de5724"></path><path d="M598 210L485 166L466 330Z" fill="#bf401c" stroke="#bf401c"></path><path d="M368 220L267 129L332 236Z" fill="#b33718" stroke="#b33718"></path><path d="M290 319L269 404L370 302Z" fill="#d24e21" stroke="#d24e21"></path><path d="M269 404L283 480L432 366Z" fill="#bf401c" stroke="#bf401c"></path><path d="M573 498L698 422L565 379Z" fill="#b33718" stroke="#b33718"></path><path d="M410 600L482 600L425 520Z" fill="#c6451d" stroke="#c6451d"></path><path d="M425 520L482 600L536 499Z" fill="#b93c1a" stroke="#b93c1a"></path><path d="M573 498L710 513L698 422Z" fill="#c6451d" stroke="#c6451d"></path><path d="M278 600L410 600L425 520Z" fill="#f16529" stroke="#f16529"></path><path d="M698 422L728 335L565 379Z" fill="#e55c26" stroke="#e55c26"></path><path d="M728 335L676 198L598 210Z" fill="#de5724" stroke="#de5724"></path><path d="M598 210L613 135L485 166Z" fill="#bf401c" stroke="#bf401c"></path><path d="M639 600L710 513L573 498Z" fill="#d85323" stroke="#d85323"></path><path d="M698 422L775 432L728 335Z" fill="#b33718" stroke="#b33718"></path><path d="M269 404L215 431L283 480Z" fill="#de5724" stroke="#de5724"></path><path d="M283 480L278 600L425 520Z" fill="#d85323" stroke="#d85323"></path><path d="M188 286L215 431L269 404Z" fill="#b33718" stroke="#b33718"></path><path d="M188 286L269 404L290 319Z" fill="#cc491f" stroke="#cc491f"></path><path d="M482 600L639 600L573 498Z" fill="#de5724" stroke="#de5724"></path><path d="M676 198L613 135L598 210Z" fill="#e55c26" stroke="#e55c26"></path><path d="M613 135L527 98L485 166Z" fill="#f16529" stroke="#f16529"></path><path d="M485 166L382 89L368 220Z" fill="#bf401c" stroke="#bf401c"></path><path d="M215 431L225 506L283 480Z" fill="#eb6027" stroke="#eb6027"></path><path d="M710 513L775 432L698 422Z" fill="#cc491f" stroke="#cc491f"></path><path d="M728 335L775 289L676 198Z" fill="#d85323" stroke="#d85323"></path><path d="M225 506L278 600L283 480Z" fill="#eb6027" stroke="#eb6027"></path><path d="M527 98L382 89L485 166Z" fill="#c6451d" stroke="#c6451d"></path><path d="M332 236L188 286L290 319Z" fill="#e55c26" stroke="#e55c26"></path><path d="M171 187L188 286L332 236Z" fill="#f16529" stroke="#f16529"></path><path d="M215 431L98 479L225 506Z" fill="#c6451d" stroke="#c6451d"></path><path d="M676 198L730 124L613 135Z" fill="#b93c1a" stroke="#b93c1a"></path><path d="M775 432L775 289L728 335Z" fill="#cc491f" stroke="#cc491f"></path><path d="M382 89L267 129L368 220Z" fill="#b33718" stroke="#b33718"></path><path d="M639 600L721 600L710 513Z" fill="#b93c1a" stroke="#b93c1a"></path><path d="M710 513L812 467L775 432Z" fill="#c6451d" stroke="#c6451d"></path><path d="M777 600L812 467L710 513Z" fill="#bf401c" stroke="#bf401c"></path><path d="M775 432L900 366L775 289Z" fill="#bf401c" stroke="#bf401c"></path><path d="M188 286L127 410L215 431Z" fill="#b33718" stroke="#b33718"></path><path d="M225 506L198 600L278 600Z" fill="#eb6027" stroke="#eb6027"></path><path d="M805 214L730 124L676 198Z" fill="#d24e21" stroke="#d24e21"></path><path d="M568 0L535 0L527 98Z" fill="#f16529" stroke="#f16529"></path><path d="M98 479L198 600L225 506Z" fill="#c6451d" stroke="#c6451d"></path><path d="M267 129L171 187L332 236Z" fill="#de5724" stroke="#de5724"></path><path d="M188 286L107 311L127 410Z" fill="#c6451d" stroke="#c6451d"></path><path d="M900 311L805 214L775 289Z" fill="#f16529" stroke="#f16529"></path><path d="M775 289L805 214L676 198Z" fill="#de5724" stroke="#de5724"></path><path d="M721 600L777 600L710 513Z" fill="#d85323" stroke="#d85323"></path><path d="M120 236L107 311L188 286Z" fill="#e55c26" stroke="#e55c26"></path><path d="M568 0L527 98L613 135Z" fill="#f16529" stroke="#f16529"></path><path d="M527 98L389 0L382 89Z" fill="#cc491f" stroke="#cc491f"></path><path d="M382 89L285 0L267 129Z" fill="#d85323" stroke="#d85323"></path><path d="M171 187L120 236L188 286Z" fill="#b93c1a" stroke="#b93c1a"></path><path d="M681 0L568 0L613 135Z" fill="#cc491f" stroke="#cc491f"></path><path d="M535 0L389 0L527 98Z" fill="#c6451d" stroke="#c6451d"></path><path d="M267 129L181 104L171 187Z" fill="#e55c26" stroke="#e55c26"></path><path d="M0 363L98 479L127 410Z" fill="#b33718" stroke="#b33718"></path><path d="M127 410L98 479L215 431Z" fill="#bf401c" stroke="#bf401c"></path><path d="M285 0L181 104L267 129Z" fill="#d24e21" stroke="#d24e21"></path><path d="M171 187L116 81L120 236Z" fill="#d85323" stroke="#d85323"></path><path d="M805 214L800 128L730 124Z" fill="#bf401c" stroke="#bf401c"></path><path d="M730 124L681 0L613 135Z" fill="#d85323" stroke="#d85323"></path><path d="M900 512L900 366L812 467Z" fill="#b33718" stroke="#b33718"></path><path d="M812 467L900 366L775 432Z" fill="#d85323" stroke="#d85323"></path><path d="M805 214L900 183L800 128Z" fill="#e55c26" stroke="#e55c26"></path><path d="M389 0L285 0L382 89Z" fill="#f16529" stroke="#f16529"></path><path d="M900 366L900 311L775 289Z" fill="#e55c26" stroke="#e55c26"></path><path d="M775 0L681 0L730 124Z" fill="#c6451d" stroke="#c6451d"></path><path d="M777 600L900 512L812 467Z" fill="#b93c1a" stroke="#b93c1a"></path><path d="M900 311L900 183L805 214Z" fill="#d24e21" stroke="#d24e21"></path><path d="M800 128L775 0L730 124Z" fill="#de5724" stroke="#de5724"></path><path d="M189 0L116 81L181 104Z" fill="#e55c26" stroke="#e55c26"></path><path d="M181 104L116 81L171 187Z" fill="#bf401c" stroke="#bf401c"></path><path d="M0 331L0 363L107 311Z" fill="#b33718" stroke="#b33718"></path><path d="M0 487L66 600L98 479Z" fill="#d85323" stroke="#d85323"></path><path d="M0 363L127 410L107 311Z" fill="#b33718" stroke="#b33718"></path><path d="M98 479L66 600L198 600Z" fill="#b93c1a" stroke="#b93c1a"></path><path d="M777 600L900 600L900 512Z" fill="#cc491f" stroke="#cc491f"></path><path d="M285 0L189 0L181 104Z" fill="#f16529" stroke="#f16529"></path><path d="M900 0L775 0L800 128Z" fill="#b93c1a" stroke="#b93c1a"></path><path d="M0 331L107 311L0 192Z" fill="#c6451d" stroke="#c6451d"></path><path d="M0 192L107 311L120 236Z" fill="#cc491f" stroke="#cc491f"></path><path d="M0 363L0 487L98 479Z" fill="#de5724" stroke="#de5724"></path><path d="M900 183L900 120L800 128Z" fill="#bf401c" stroke="#bf401c"></path><path d="M0 88L0 192L116 81Z" fill="#b33718" stroke="#b33718"></path><path d="M116 81L0 192L120 236Z" fill="#f16529" stroke="#f16529"></path><path d="M189 0L115 0L116 81Z" fill="#c6451d" stroke="#c6451d"></path><path d="M0 487L0 600L66 600Z" fill="#bf401c" stroke="#bf401c"></path><path d="M0 0L0 88L116 81Z" fill="#b93c1a" stroke="#b93c1a"></path><path d="M900 120L900 0L800 128Z" fill="#b93c1a" stroke="#b93c1a"></path><path d="M115 0L0 0L116 81Z" fill="#b93c1a" stroke="#b93c1a"></path></g></svg>